<svg data-v-1084b650="" xmlns="http://www.w3.org/2000/svg" viewBox="0 0 300 300"><!----> <!----> <rect data-v-1084b650="" fill="#FFFFFF" x="0" y="0" width="300px" height="300px" class="logo-background-square"></rect> <!----> <g data-v-1084b650="" id="5fa0d068-0800-c1f6-98e8-833210b3e37f" fill="#353D3E" transform="matrix(5.199999999999998,0,0,5.199999999999998,34.637996923923524,169.03460817337037)"><path d="M0.17 12.29L1.86 2.69L3.57 2.69L6.66 8.57L6.66 8.57Q6.78 8.78 6.88 9.01L6.88 9.01L6.88 9.01Q6.99 9.24 7.04 9.37L7.04 9.37L7.11 9.35L7.11 9.35Q7.21 8.64 7.24 8.53L7.24 8.53L8.26 2.69L9.98 2.69L8.29 12.29L6.61 12.29L3.53 6.40L3.53 6.40Q3.39 6.15 3.27 5.88L3.27 5.88L3.27 5.88Q3.15 5.61 3.12 5.56L3.12 5.56L3.05 5.56L3.00 5.89L2.91 6.44L1.89 12.29L0.17 12.29ZM12.74 12.46L12.74 12.46Q11.77 12.46 11.19 12.00L11.19 12.00L11.19 12.00Q10.60 11.55 10.60 10.58L10.60 10.58L10.60 10.58Q10.60 10.28 10.66 9.90L10.66 9.90L10.66 9.90Q10.72 9.53 10.74 9.48L10.74 9.48L11.55 4.93L13.23 4.93L12.45 9.38L12.45 9.38Q12.36 9.88 12.36 10.07L12.36 10.07L12.36 10.07Q12.36 10.57 12.62 10.79L12.62 10.79L12.62 10.79Q12.88 11.00 13.36 11.00L13.36 11.00L13.36 11.00Q14.15 11.00 14.76 10.44L14.76 10.44L14.76 10.44Q15.37 9.88 15.54 8.89L15.54 8.89L16.24 4.93L17.92 4.93L16.62 12.29L15.26 12.29L15.26 11.30L15.16 11.30L15.16 11.30Q14.74 11.80 14.09 12.13L14.09 12.13L14.09 12.13Q13.44 12.46 12.74 12.46L12.74 12.46ZM18.62 12.29L19.92 4.93L21.28 4.93L21.28 5.92L21.38 5.92L21.38 5.92Q22.34 4.76 23.63 4.76L23.63 4.76L23.63 4.76Q24.33 4.76 24.80 5.05L24.80 5.05L24.80 5.05Q25.27 5.33 25.44 5.92L25.44 5.92L25.54 5.92L25.54 5.92Q26.00 5.39 26.60 5.07L26.60 5.07L26.60 5.07Q27.20 4.76 27.87 4.76L27.87 4.76L27.87 4.76Q29.83 4.76 29.83 6.61L29.83 6.61L29.83 6.61Q29.83 7 29.72 7.59L29.72 7.59L28.88 12.29L27.20 12.29L28 7.76L28 7.76Q28.08 7.28 28.08 7.13L28.08 7.13L28.08 7.13Q28.08 6.22 27.16 6.22L27.16 6.22L27.16 6.22Q26.50 6.22 25.98 6.78L25.98 6.78L25.98 6.78Q25.47 7.34 25.31 8.22L25.31 8.22L24.60 12.29L22.92 12.29L23.72 7.76L23.72 7.76Q23.79 7.36 23.79 7.13L23.79 7.13L23.79 7.13Q23.79 6.22 22.88 6.22L22.88 6.22L22.88 6.22Q22.22 6.22 21.69 6.78L21.69 6.78L21.69 6.78Q21.17 7.34 21.01 8.22L21.01 8.22L20.30 12.29L18.62 12.29ZM37.14 10.71L37.14 10.71Q37.14 11.09 37.55 11.09L37.55 11.09L38.01 11.09L37.80 12.24L37.80 12.24Q37.38 12.46 36.74 12.46L36.74 12.46L36.74 12.46Q36.19 12.46 35.86 12.14L35.86 12.14L35.86 12.14Q35.53 11.82 35.53 11.26L35.53 11.26L35.46 11.26L35.46 11.26Q35.08 11.83 34.48 12.14L34.48 12.14L34.48 12.14Q33.88 12.46 33.21 12.46L33.21 12.46L33.21 12.46Q32.10 12.46 31.46 11.73L31.46 11.73L31.46 11.73Q30.83 11.00 30.83 9.63L30.83 9.63L30.83 9.63Q30.83 8.41 31.22 7.29L31.22 7.29L31.22 7.29Q31.61 6.17 32.38 5.47L32.38 5.47L32.38 5.47Q33.14 4.76 34.20 4.76L34.20 4.76L34.20 4.76Q34.96 4.76 35.45 5.01L35.45 5.01L35.45 5.01Q35.95 5.26 36.26 5.78L36.26 5.78L36.34 5.78L36.78 4.93L38.16 4.93L38.16 4.93Q37.98 5.95 37.84 6.77L37.84 6.77L37.84 6.77Q37.69 7.59 37.58 8.23L37.58 8.23L37.58 8.23Q37.14 10.57 37.14 10.71L37.14 10.71ZM33.80 11.02L33.80 11.02Q34.54 11.02 35.01 10.47L35.01 10.47L35.01 10.47Q35.49 9.93 35.71 9.16L35.71 9.16L35.71 9.16Q35.92 8.39 35.92 7.69L35.92 7.69L35.92 7.69Q35.92 6.16 34.64 6.16L34.64 6.16L34.64 6.16Q33.91 6.16 33.45 6.68L33.45 6.68L33.45 6.68Q32.98 7.20 32.78 7.97L32.78 7.97L32.78 7.97Q32.58 8.74 32.58 9.53L32.58 9.53L32.58 9.53Q32.58 10.28 32.87 10.65L32.87 10.65L32.87 10.65Q33.17 11.02 33.80 11.02L33.80 11.02ZM38.91 12.29L40.21 4.93L41.57 4.93L41.54 6.09L41.64 6.09L41.64 6.09Q41.97 5.47 42.39 5.12L42.39 5.12L42.39 5.12Q42.81 4.76 43.47 4.76L43.47 4.76L43.47 4.76Q43.75 4.76 43.97 4.82L43.97 4.82L43.97 4.82Q44.20 4.87 44.20 4.89L44.20 4.89L43.93 6.47L43.40 6.47L43.40 6.47Q41.61 6.47 41.24 8.51L41.24 8.51L40.59 12.29L38.91 12.29Z"></path></g> <!----> <g data-v-1084b650="" id="3cab1c2d-88c6-f6a0-88c2-3eebad8088ed" stroke="none" fill="#404141" transform="matrix(0.4714550647393998,0,0,0.4714550647393998,79.28174028909002,46.25914224026904)"><svg xmlns="http://www.w3.org/2000/svg" viewBox="0 0 100 100"><path d="M93.844 43.76L52.389 70.388V85.92L100 55.314zM0 55.314L47.611 85.92V70.384L6.174 43.718zM50 14.08L9.724 39.972 50 65.887l40.318-25.888L50 14.08zm0 15.954L29.95 42.929l-5.027-3.228L50 23.576l25.077 16.125-5.026 3.228L50 30.034z"></path></svg></g></svg>